<?xml version="1.0" encoding="utf-8"?>
<!-- Generator: Adobe Illustrator 16.0.0, SVG Export Plug-In . SVG Version: 6.00 Build 0)  -->
<!DOCTYPE svg PUBLIC "-//W3C//DTD SVG 1.1//EN" "http://www.w3.org/Graphics/SVG/1.1/DTD/svg11.dtd">
<svg version="1.1" id="Layer_1" xmlns="http://www.w3.org/2000/svg" xmlns:xlink="http://www.w3.org/1999/xlink" x="0px" y="0px"
	 width="80.083px" height="26.207px" viewBox="0 24.237 80.083 26.207" enable-background="new 0 24.237 80.083 26.207"
	 xml:space="preserve">
<g>
	<rect x="0" y="24.237" fill="#F5F5F5" width="40" height="26.207"/>
	<path fill="#EB0A12" d="M40,26.253H0v-2.016h40L40,26.253L40,26.253z"/>
	<rect x="0" y="32.301" fill="#EB0A12" width="40" height="2.016"/>
	<rect x="0" y="28.269" fill="#EB0A12" width="40" height="2.016"/>
	<path fill="#EB0A12" d="M40,38.348H0v-2.016h40L40,38.348L40,38.348z"/>
	<rect x="0" y="44.397" fill="#EB0A12" width="40" height="2.015"/>
	<path fill="#EB0A12" d="M40,50.444H0v-2.016h40L40,50.444L40,50.444z"/>
	<rect x="0" y="40.365" fill="#EB0A12" width="40" height="2.016"/>
	<g>
		<rect x="0" y="24.237" fill="#0161B0" width="18.621" height="14.111"/>
		<g>
			<path fill="#F5F5F5" d="M1.937,25.82l0.153,0.458l0.482,0.004c0.062,0,0.088,0.08,0.038,0.118l-0.388,0.286l0.146,0.461
				c0.019,0.06-0.049,0.109-0.1,0.073l-0.393-0.281l-0.392,0.281c-0.052,0.036-0.12-0.013-0.101-0.072l0.146-0.461L1.14,26.399
				c-0.051-0.037-0.024-0.117,0.038-0.118l0.482-0.004l0.153-0.458C1.833,25.76,1.916,25.76,1.937,25.82z"/>
			<path fill="#F5F5F5" d="M1.937,28.215l0.153,0.458l0.482,0.003c0.063,0,0.088,0.081,0.038,0.117L2.222,29.08l0.146,0.46
				c0.019,0.06-0.049,0.109-0.1,0.072l-0.393-0.28l-0.392,0.28c-0.052,0.037-0.119-0.012-0.1-0.072l0.146-0.46L1.14,28.793
				c-0.05-0.037-0.024-0.117,0.038-0.118l0.482-0.003l0.153-0.458C1.833,28.156,1.916,28.156,1.937,28.215z"/>
			<path fill="#F5F5F5" d="M1.937,30.61l0.153,0.458l0.482,0.003c0.063,0,0.088,0.081,0.038,0.117l-0.388,0.287l0.146,0.46
				c0.019,0.059-0.049,0.109-0.1,0.072l-0.393-0.281l-0.393,0.281c-0.051,0.037-0.119-0.013-0.1-0.072l0.146-0.46L1.14,31.188
				c-0.051-0.036-0.024-0.117,0.038-0.117l0.482-0.003l0.153-0.458C1.833,30.55,1.916,30.55,1.937,30.61z"/>
			<path fill="#F5F5F5" d="M1.937,33.004l0.153,0.458l0.482,0.003c0.063,0,0.088,0.08,0.038,0.117L2.222,33.87l0.146,0.46
				c0.019,0.059-0.049,0.11-0.1,0.073l-0.393-0.281l-0.392,0.281c-0.052,0.037-0.119-0.013-0.1-0.073l0.146-0.46L1.14,33.583
				c-0.051-0.037-0.024-0.117,0.038-0.117l0.482-0.004l0.153-0.458C1.833,32.945,1.916,32.945,1.937,33.004z"/>
			<path fill="#F5F5F5" d="M1.937,35.399l0.153,0.458l0.482,0.004c0.063,0,0.088,0.08,0.038,0.117l-0.388,0.286l0.146,0.461
				c0.019,0.06-0.049,0.109-0.1,0.073l-0.393-0.281l-0.393,0.281c-0.051,0.036-0.119-0.013-0.1-0.073l0.146-0.46L1.14,35.979
				c-0.051-0.038-0.024-0.117,0.038-0.118l0.482-0.003l0.153-0.458C1.833,35.34,1.916,35.34,1.937,35.399z"/>
			<path fill="#F5F5F5" d="M3.796,26.994l0.153,0.458l0.482,0.004c0.063,0,0.088,0.08,0.038,0.117L4.081,27.86l0.146,0.46
				c0.019,0.059-0.049,0.109-0.1,0.073l-0.392-0.281l-0.393,0.281c-0.051,0.036-0.118-0.013-0.1-0.073l0.146-0.46l-0.389-0.287
				c-0.05-0.037-0.024-0.117,0.039-0.117l0.482-0.004l0.153-0.458C3.692,26.934,3.775,26.934,3.796,26.994z"/>
			<path fill="#F5F5F5" d="M3.796,29.389l0.153,0.458l0.482,0.004c0.063,0,0.088,0.08,0.038,0.117l-0.388,0.286l0.146,0.461
				c0.019,0.06-0.049,0.109-0.1,0.072l-0.392-0.28l-0.393,0.28c-0.051,0.037-0.118-0.013-0.1-0.072l0.146-0.461l-0.389-0.286
				c-0.05-0.038-0.024-0.117,0.038-0.118l0.482-0.004l0.153-0.458C3.692,29.329,3.775,29.329,3.796,29.389z"/>
			<path fill="#F5F5F5" d="M3.796,31.783l0.153,0.458l0.482,0.003c0.063,0,0.088,0.081,0.038,0.117l-0.388,0.287l0.146,0.46
				c0.019,0.06-0.049,0.109-0.1,0.073l-0.392-0.281l-0.393,0.281c-0.051,0.036-0.118-0.013-0.1-0.073l0.146-0.46l-0.388-0.287
				c-0.051-0.037-0.024-0.117,0.038-0.117l0.482-0.003l0.153-0.458C3.692,31.724,3.775,31.724,3.796,31.783z"/>
			<path fill="#F5F5F5" d="M3.796,34.178l0.153,0.458l0.482,0.004c0.063,0,0.088,0.081,0.038,0.117l-0.388,0.287l0.146,0.46
				c0.019,0.06-0.049,0.109-0.1,0.072l-0.392-0.281l-0.393,0.281c-0.051,0.037-0.118-0.013-0.1-0.072l0.146-0.46l-0.389-0.287
				c-0.05-0.037-0.024-0.117,0.038-0.117l0.482-0.004l0.153-0.458C3.692,34.119,3.775,34.119,3.796,34.178z"/>
			<path fill="#F5F5F5" d="M5.654,25.82l0.153,0.458l0.483,0.004c0.063,0.001,0.088,0.081,0.038,0.118L5.94,26.685l0.146,0.461
				c0.02,0.059-0.049,0.108-0.1,0.072l-0.393-0.281L5.2,27.218c-0.051,0.036-0.119-0.013-0.1-0.072l0.146-0.461l-0.389-0.286
				c-0.05-0.038-0.024-0.117,0.038-0.118l0.482-0.004l0.153-0.458C5.551,25.76,5.635,25.76,5.654,25.82z"/>
			<path fill="#F5F5F5" d="M5.654,28.215l0.153,0.458l0.483,0.003c0.063,0,0.088,0.081,0.038,0.117L5.94,29.08l0.146,0.46
				c0.02,0.06-0.049,0.109-0.1,0.072l-0.393-0.28L5.2,29.612c-0.051,0.037-0.119-0.012-0.1-0.072l0.146-0.46l-0.388-0.287
				c-0.05-0.037-0.024-0.117,0.038-0.117l0.482-0.003l0.153-0.458C5.551,28.156,5.635,28.156,5.654,28.215z"/>
			<path fill="#F5F5F5" d="M5.654,30.61l0.153,0.458l0.483,0.003c0.063,0,0.088,0.081,0.038,0.117L5.94,31.475l0.146,0.46
				c0.02,0.059-0.049,0.109-0.1,0.072l-0.393-0.281L5.2,32.008c-0.051,0.037-0.119-0.013-0.1-0.072l0.146-0.46l-0.388-0.287
				c-0.05-0.036-0.024-0.117,0.038-0.117l0.482-0.003l0.153-0.458C5.551,30.55,5.635,30.55,5.654,30.61z"/>
			<path fill="#F5F5F5" d="M5.654,33.004l0.153,0.458l0.483,0.003c0.063,0,0.088,0.081,0.038,0.117L5.94,33.87l0.146,0.46
				c0.02,0.059-0.049,0.109-0.1,0.072l-0.393-0.28L5.2,34.403c-0.051,0.037-0.119-0.013-0.1-0.072l0.146-0.46l-0.388-0.287
				c-0.05-0.037-0.024-0.117,0.038-0.117l0.482-0.003l0.153-0.458C5.551,32.945,5.635,32.945,5.654,33.004z"/>
			<path fill="#F5F5F5" d="M5.654,35.399l0.153,0.458l0.483,0.004c0.063,0,0.088,0.08,0.038,0.117L5.94,36.264l0.146,0.461
				c0.02,0.06-0.049,0.109-0.1,0.073l-0.393-0.281L5.2,36.798c-0.051,0.036-0.119-0.013-0.1-0.073l0.146-0.461l-0.388-0.286
				c-0.05-0.037-0.024-0.117,0.038-0.117l0.482-0.004l0.153-0.458C5.551,35.34,5.635,35.34,5.654,35.399z"/>
			<path fill="#F5F5F5" d="M7.513,26.994l0.153,0.458l0.482,0.004c0.063,0,0.089,0.08,0.038,0.117L7.799,27.86l0.146,0.46
				c0.019,0.059-0.049,0.109-0.1,0.073l-0.393-0.281l-0.393,0.281c-0.051,0.036-0.119-0.013-0.1-0.073l0.146-0.46l-0.388-0.287
				c-0.05-0.037-0.024-0.117,0.038-0.117l0.483-0.004l0.153-0.458C7.409,26.934,7.493,26.934,7.513,26.994z"/>
			<path fill="#F5F5F5" d="M7.513,29.389l0.153,0.458l0.482,0.004c0.063,0,0.089,0.08,0.038,0.117l-0.388,0.286l0.146,0.461
				c0.019,0.06-0.049,0.109-0.1,0.072l-0.393-0.28l-0.393,0.28c-0.051,0.037-0.119-0.013-0.1-0.072l0.146-0.461l-0.388-0.286
				c-0.05-0.038-0.024-0.117,0.038-0.118l0.483-0.004l0.153-0.458C7.409,29.329,7.493,29.329,7.513,29.389z"/>
			<path fill="#F5F5F5" d="M7.513,31.783l0.153,0.458l0.482,0.003c0.063,0,0.089,0.081,0.038,0.117l-0.388,0.287l0.146,0.46
				c0.019,0.06-0.049,0.109-0.1,0.073l-0.393-0.281l-0.393,0.281c-0.051,0.036-0.119-0.013-0.1-0.073l0.146-0.46l-0.388-0.287
				c-0.05-0.037-0.025-0.117,0.038-0.117l0.482-0.003l0.153-0.458C7.409,31.724,7.493,31.724,7.513,31.783z"/>
			<path fill="#F5F5F5" d="M7.513,34.178l0.153,0.458l0.482,0.004c0.063,0,0.089,0.081,0.038,0.117l-0.388,0.287l0.146,0.46
				c0.019,0.06-0.049,0.109-0.1,0.072l-0.393-0.281l-0.393,0.281c-0.051,0.037-0.119-0.013-0.1-0.072l0.146-0.46l-0.388-0.287
				c-0.05-0.037-0.024-0.117,0.038-0.117l0.483-0.004l0.153-0.458C7.409,34.119,7.493,34.119,7.513,34.178z"/>
			<path fill="#F5F5F5" d="M9.372,25.82l0.153,0.458l0.482,0.004c0.063,0.001,0.088,0.081,0.038,0.118l-0.388,0.286l0.146,0.461
				c0.019,0.059-0.049,0.108-0.1,0.072l-0.393-0.281l-0.393,0.281c-0.051,0.036-0.119-0.013-0.1-0.072l0.146-0.461l-0.388-0.286
				c-0.051-0.038-0.024-0.117,0.038-0.118l0.482-0.004l0.153-0.458C9.268,25.76,9.352,25.76,9.372,25.82z"/>
			<path fill="#F5F5F5" d="M9.372,28.215l0.153,0.458l0.482,0.003c0.063,0,0.088,0.081,0.038,0.117L9.657,29.08l0.146,0.46
				c0.019,0.06-0.049,0.109-0.1,0.072l-0.393-0.28l-0.393,0.28C8.867,29.649,8.8,29.6,8.818,29.54l0.146-0.46l-0.388-0.287
				c-0.051-0.037-0.024-0.117,0.038-0.117l0.482-0.003l0.153-0.458C9.268,28.156,9.352,28.156,9.372,28.215z"/>
			<path fill="#F5F5F5" d="M9.372,30.61l0.153,0.458l0.482,0.003c0.063,0,0.088,0.081,0.038,0.117l-0.388,0.287l0.146,0.46
				c0.019,0.059-0.049,0.109-0.1,0.072l-0.393-0.281l-0.393,0.281c-0.051,0.037-0.119-0.013-0.1-0.072l0.146-0.46l-0.388-0.287
				c-0.051-0.036-0.024-0.117,0.038-0.117l0.482-0.003l0.153-0.458C9.268,30.55,9.352,30.55,9.372,30.61z"/>
			<path fill="#F5F5F5" d="M9.372,33.004l0.153,0.458l0.482,0.003c0.063,0,0.088,0.081,0.038,0.117L9.657,33.87l0.146,0.46
				c0.019,0.059-0.049,0.109-0.1,0.072l-0.393-0.28l-0.393,0.28c-0.051,0.037-0.119-0.013-0.1-0.072l0.146-0.46l-0.388-0.287
				c-0.051-0.037-0.024-0.117,0.038-0.117l0.482-0.003l0.153-0.458C9.268,32.945,9.352,32.945,9.372,33.004z"/>
			<path fill="#F5F5F5" d="M9.372,35.399l0.153,0.458l0.482,0.004c0.063,0,0.088,0.08,0.038,0.117l-0.388,0.286l0.146,0.461
				c0.019,0.06-0.049,0.109-0.1,0.073l-0.393-0.281l-0.393,0.281c-0.051,0.036-0.119-0.013-0.1-0.073l0.146-0.461l-0.388-0.286
				c-0.051-0.037-0.024-0.117,0.038-0.117l0.482-0.004l0.153-0.458C9.268,35.34,9.352,35.34,9.372,35.399z"/>
			<path fill="#F5F5F5" d="M11.231,26.994l0.153,0.458l0.482,0.004c0.063,0,0.088,0.08,0.038,0.117l-0.388,0.287l0.146,0.46
				c0.019,0.059-0.049,0.109-0.1,0.073l-0.393-0.281l-0.393,0.281c-0.051,0.036-0.119-0.013-0.1-0.073l0.146-0.46l-0.388-0.287
				c-0.051-0.038-0.025-0.117,0.038-0.118l0.482-0.004l0.153-0.458C11.127,26.934,11.211,26.934,11.231,26.994z"/>
			<path fill="#F5F5F5" d="M11.231,29.389l0.153,0.458l0.482,0.004c0.063,0,0.088,0.08,0.038,0.117l-0.388,0.286l0.146,0.461
				c0.019,0.06-0.049,0.109-0.1,0.072l-0.393-0.28l-0.393,0.28c-0.051,0.037-0.119-0.013-0.1-0.072l0.146-0.461l-0.388-0.286
				c-0.05-0.037-0.024-0.117,0.038-0.117l0.482-0.004l0.153-0.458C11.127,29.329,11.211,29.329,11.231,29.389z"/>
			<path fill="#F5F5F5" d="M11.231,31.783l0.153,0.458l0.482,0.003c0.063,0,0.088,0.081,0.038,0.117l-0.388,0.287l0.146,0.46
				c0.019,0.06-0.049,0.109-0.1,0.073l-0.393-0.281l-0.393,0.281c-0.051,0.036-0.119-0.013-0.1-0.073l0.146-0.46l-0.388-0.287
				c-0.05-0.037-0.024-0.117,0.038-0.117l0.482-0.003l0.153-0.458C11.127,31.724,11.211,31.724,11.231,31.783z"/>
			<path fill="#F5F5F5" d="M11.231,34.178l0.153,0.458l0.482,0.004c0.063,0,0.088,0.081,0.038,0.117l-0.388,0.287l0.146,0.46
				c0.019,0.06-0.049,0.109-0.1,0.072l-0.393-0.281l-0.393,0.281c-0.051,0.037-0.119-0.013-0.1-0.072l0.146-0.46l-0.388-0.287
				c-0.05-0.037-0.024-0.117,0.038-0.117l0.482-0.004l0.153-0.458C11.127,34.119,11.211,34.119,11.231,34.178z"/>
			<path fill="#F5F5F5" d="M13.09,25.82l0.153,0.458l0.482,0.004c0.063,0.001,0.088,0.081,0.038,0.118l-0.388,0.286l0.146,0.461
				c0.019,0.059-0.049,0.108-0.1,0.072l-0.393-0.281l-0.393,0.281c-0.051,0.036-0.119-0.013-0.1-0.072l0.146-0.461l-0.389-0.286
				c-0.05-0.038-0.024-0.117,0.038-0.118l0.483-0.004l0.153-0.458C12.986,25.76,13.07,25.76,13.09,25.82z"/>
			<path fill="#F5F5F5" d="M13.09,28.215l0.153,0.458l0.482,0.003c0.063,0,0.088,0.081,0.038,0.117l-0.388,0.287l0.146,0.46
				c0.019,0.06-0.049,0.109-0.1,0.072l-0.393-0.28l-0.393,0.28c-0.051,0.037-0.119-0.012-0.1-0.072l0.146-0.46l-0.388-0.287
				c-0.05-0.037-0.024-0.117,0.038-0.117l0.482-0.003l0.153-0.458C12.986,28.156,13.07,28.156,13.09,28.215z"/>
			<path fill="#F5F5F5" d="M13.09,30.61l0.153,0.458l0.482,0.003c0.063,0,0.088,0.081,0.038,0.117l-0.388,0.287l0.146,0.46
				c0.019,0.059-0.049,0.109-0.1,0.072l-0.393-0.281l-0.393,0.281c-0.051,0.037-0.119-0.013-0.1-0.072l0.146-0.46l-0.388-0.287
				c-0.05-0.036-0.024-0.117,0.038-0.117l0.482-0.003l0.153-0.458C12.986,30.55,13.07,30.55,13.09,30.61z"/>
			<path fill="#F5F5F5" d="M13.09,33.004l0.153,0.458l0.482,0.003c0.063,0,0.088,0.081,0.038,0.117l-0.388,0.287l0.146,0.46
				c0.019,0.059-0.049,0.109-0.1,0.072l-0.393-0.28l-0.393,0.28c-0.051,0.037-0.119-0.013-0.1-0.072l0.146-0.46l-0.388-0.287
				c-0.05-0.037-0.024-0.117,0.038-0.117l0.482-0.003l0.153-0.458C12.986,32.945,13.07,32.945,13.09,33.004z"/>
			<path fill="#F5F5F5" d="M13.09,35.399l0.153,0.458l0.482,0.004c0.063,0,0.088,0.08,0.038,0.117l-0.388,0.286l0.146,0.461
				c0.019,0.06-0.049,0.109-0.1,0.073l-0.393-0.281l-0.393,0.281c-0.051,0.036-0.119-0.013-0.1-0.073l0.146-0.461l-0.389-0.286
				c-0.05-0.038-0.024-0.117,0.038-0.118l0.483-0.004l0.153-0.458C12.986,35.34,13.07,35.34,13.09,35.399z"/>
			<path fill="#F5F5F5" d="M14.948,26.994l0.153,0.458l0.482,0.004c0.063,0,0.088,0.08,0.038,0.117l-0.388,0.287l0.146,0.46
				c0.019,0.059-0.049,0.109-0.1,0.073l-0.393-0.281l-0.392,0.281c-0.051,0.036-0.119-0.013-0.1-0.073l0.146-0.46l-0.388-0.287
				c-0.05-0.038-0.025-0.117,0.038-0.117l0.482-0.004l0.153-0.458C14.844,26.934,14.928,26.934,14.948,26.994z"/>
			<path fill="#F5F5F5" d="M14.948,29.389l0.153,0.458l0.482,0.004c0.063,0,0.088,0.08,0.038,0.117l-0.388,0.286l0.146,0.461
				c0.019,0.06-0.049,0.109-0.1,0.072l-0.393-0.28l-0.392,0.28c-0.051,0.037-0.119-0.013-0.1-0.072l0.146-0.461l-0.388-0.286
				c-0.05-0.037-0.025-0.117,0.038-0.117l0.482-0.004l0.153-0.458C14.844,29.329,14.928,29.329,14.948,29.389z"/>
			<path fill="#F5F5F5" d="M14.948,31.783l0.153,0.458l0.482,0.003c0.063,0,0.088,0.081,0.038,0.117l-0.388,0.287l0.146,0.46
				c0.019,0.06-0.049,0.109-0.1,0.073l-0.393-0.281l-0.392,0.281c-0.051,0.036-0.119-0.013-0.1-0.073l0.146-0.46l-0.388-0.287
				c-0.05-0.037-0.025-0.117,0.038-0.117l0.482-0.003l0.153-0.458C14.844,31.724,14.928,31.724,14.948,31.783z"/>
			<path fill="#F5F5F5" d="M14.948,34.178l0.153,0.458l0.482,0.004c0.063,0,0.088,0.081,0.038,0.117l-0.388,0.287l0.146,0.46
				c0.019,0.06-0.049,0.109-0.1,0.072l-0.393-0.281l-0.392,0.281c-0.051,0.037-0.119-0.013-0.1-0.072l0.146-0.46l-0.388-0.287
				c-0.05-0.037-0.025-0.117,0.038-0.117l0.482-0.004l0.153-0.458C14.844,34.119,14.928,34.119,14.948,34.178z"/>
			<path fill="#F5F5F5" d="M16.807,25.82l0.153,0.458l0.482,0.004c0.062,0.001,0.088,0.081,0.038,0.118l-0.388,0.286l0.146,0.461
				c0.019,0.059-0.049,0.108-0.1,0.072l-0.392-0.281l-0.393,0.281c-0.051,0.036-0.119-0.013-0.1-0.072l0.146-0.461l-0.389-0.286
				c-0.05-0.038-0.024-0.117,0.038-0.118l0.483-0.004l0.153-0.458C16.704,25.76,16.787,25.76,16.807,25.82z"/>
			<path fill="#F5F5F5" d="M16.807,28.215l0.153,0.458l0.482,0.003c0.062,0,0.088,0.081,0.038,0.117l-0.388,0.287l0.146,0.46
				c0.019,0.06-0.049,0.109-0.1,0.072l-0.392-0.28l-0.393,0.28c-0.051,0.037-0.119-0.012-0.1-0.072l0.146-0.46l-0.388-0.287
				c-0.05-0.037-0.024-0.117,0.038-0.117l0.482-0.003l0.153-0.458C16.704,28.156,16.787,28.156,16.807,28.215z"/>
			<path fill="#F5F5F5" d="M16.807,30.61l0.153,0.458l0.482,0.003c0.062,0,0.088,0.081,0.038,0.117l-0.388,0.287l0.146,0.46
				c0.019,0.059-0.049,0.109-0.1,0.072l-0.392-0.281l-0.393,0.281c-0.051,0.037-0.119-0.013-0.1-0.072l0.146-0.46l-0.388-0.287
				c-0.05-0.036-0.024-0.117,0.038-0.117l0.482-0.003l0.153-0.458C16.704,30.55,16.787,30.55,16.807,30.61z"/>
			<path fill="#F5F5F5" d="M16.807,33.004l0.153,0.458l0.482,0.003c0.062,0,0.088,0.081,0.038,0.117l-0.388,0.287l0.146,0.46
				c0.019,0.059-0.049,0.109-0.1,0.072l-0.392-0.28l-0.393,0.28c-0.051,0.037-0.119-0.013-0.1-0.072l0.146-0.46l-0.388-0.287
				c-0.05-0.037-0.024-0.117,0.038-0.117l0.482-0.003l0.153-0.458C16.704,32.945,16.787,32.945,16.807,33.004z"/>
			<path fill="#F5F5F5" d="M16.807,35.399l0.153,0.458l0.482,0.004c0.062,0,0.088,0.08,0.038,0.117l-0.388,0.286l0.146,0.461
				c0.019,0.06-0.049,0.109-0.1,0.073l-0.392-0.281l-0.393,0.281c-0.051,0.036-0.119-0.013-0.1-0.073l0.146-0.461l-0.388-0.286
				c-0.05-0.037-0.024-0.117,0.038-0.117l0.482-0.004l0.153-0.458C16.704,35.34,16.787,35.34,16.807,35.399z"/>
		</g>
	</g>
</g>
<g>
	<rect x="40.083" y="24.237" fill="#FFFFFF" width="40" height="26.206"/>
	<rect x="40.083" y="24.237" fill="#EC1B24" width="40" height="4.108"/>
	<rect x="40.083" y="46.768" fill="#EC1B24" width="40" height="3.676"/>
	<rect x="40.083" y="32.164" fill="#0064B2" width="40" height="10.35"/>
</g>
</svg>
