<svg xmlns="http://www.w3.org/2000/svg" xmlns:xlink="http://www.w3.org/1999/xlink" xmlns:svgjs="http://svgjs.com/svgjs" version="1.1" width="512" height="512" style="enable-background:new 0 0 512 512" xml:space="preserve"><rect id="backgroundrect" width="100%" height="100%" x="0" y="0" fill="none" stroke="none"/><g class="currentLayer" style=""><title>Layer 1</title><circle r="256" cx="256" cy="256" fill="#bac8d3" shape="circle" id="svg_1"/>






<path d="M372.17011017841287,259.35742164752446 C372.17011017841287,253.45664049801417 367.3849540099036,248.6714843295049 361.48143848543987,248.6714843295049 C355.57792296097614,248.6714843295049 350.79276679246686,253.45664049801417 350.79276679246686,259.35742164752446 C350.79276679246686,311.6386707571801 308.26229876675643,354.1691387828905 255.9810496571008,354.1691387828905 C203.70253492239863,354.1691387828905 161.1720668966882,311.6386707571801 161.1720668966882,259.35742164752446 C161.1720668966882,253.45664049801417 156.38691072817892,248.6714843295049 150.4833952037152,248.6714843295049 C144.57988001303747,248.6714843295049 139.7947235107422,253.45664049801417 139.7947235107422,259.35742164752446 C139.7947235107422,319.82265499280766 186.21894147014245,369.6347635195125 245.29511233908124,375.04882592731155 L245.29511233908124,403.8226535622962 L205.62753488961607,403.8226535622962 C199.72401936515234,403.8226535622962 194.93886319664307,408.60780973080546 194.93886319664307,414.5113252552692 C194.93886319664307,420.4148407797329 199.72401936515234,425.1999969482422 205.62753488961607,425.1999969482422 L306.337298799539,425.1999969482422 C312.2380799490493,425.1999969482422 317.025970492512,420.4148407797329 317.025970492512,414.5113252552692 C317.025970492512,408.60780973080546 312.2380799490493,403.8226535622962 306.337298799539,403.8226535622962 L266.6697213500738,403.8226535622962 L266.6697213500738,375.04882592731155 C325.7458922190126,369.6374978944659 372.17011017841287,319.82265499280766 372.17011017841287,259.35742164752446 zM372.17011017841287,259.35742164752446 " style="" fill="#3b4958" data-original="#3b4958" class="" stroke-width="0" id="svg_3"/><path d="M372.17011017841287,259.35742164752446 C372.17011017841287,253.45664049801417 367.3849540099036,248.6714843295049 361.48143848543987,248.6714843295049 C355.57792296097614,248.6714843295049 350.79276679246686,253.45664049801417 350.79276679246686,259.35742164752446 C350.79276679246686,311.6386707571801 308.26229876675643,354.1691387828905 255.9810496571008,354.1691387828905 C255.9072215333581,354.1691387828905 255.83339340961538,354.1664044079371 255.75683091091923,354.1664044079371 L255.75683091091923,425.1999969482422 L306.337298799539,425.1999969482422 C312.2380799490493,425.1999969482422 317.025970492512,420.4148407797329 317.025970492512,414.5113252552692 C317.025970492512,408.60780973080546 312.2380799490493,403.8226535622962 306.337298799539,403.8226535622962 L266.6697213500738,403.8226535622962 L266.6697213500738,375.051560302265 C325.7458922190126,369.6374978944659 372.17011017841287,319.82265499280766 372.17011017841287,259.35742164752446 zM372.17011017841287,259.35742164752446 " style="" fill="#17202a" data-original="#17202a" class="" stroke-width="0" id="svg_4"/><path d="M255.9810496571008,327.7960923570208 C218.2466752997134,327.7960923570208 187.54511332255788,297.0945303798653 187.54511332255788,259.35742164752446 L187.54511332255788,135.23593938630074 C187.54511332255788,97.50156502891332 218.2466752997134,66.80000305175781 255.9810496571008,66.80000305175781 C293.71815838944167,66.80000305175781 324.4197203665972,97.50156502891332 324.4197203665972,135.23593938630074 L324.4197203665972,259.35742164752446 C324.4197203665972,297.0945303798653 293.71815838944167,327.7960923570208 255.9810496571008,327.7960923570208 zM255.9810496571008,327.7960923570208 " style="" fill="#4dbbeb" data-original="#ff7045" class="" stroke-width="0" id="svg_5" fill-opacity="1"/><path d="M255.9810496571008,66.80000305175781 C255.9072215333581,66.80000305175781 255.83339340961538,66.80273742671125 255.75683091091923,66.80273742671125 L255.75683091091923,327.7933579820674 C255.83339340961538,327.7933579820674 255.9072215333581,327.7960923570208 255.9810496571008,327.7960923570208 C293.71815838944167,327.7960923570208 324.4197203665972,297.0945303798653 324.4197203665972,259.35742164752446 L324.4197203665972,135.23593938630074 C324.4197203665972,97.50156502891332 293.71815838944167,66.80000305175781 255.9810496571008,66.80000305175781 zM255.9810496571008,66.80000305175781 " style="" fill="#2488ff" data-original="#f64c1c" class="" stroke-width="0" id="svg_6" fill-opacity="1"/></g></svg>