<?xml version="1.0"?>
<svg xmlns="http://www.w3.org/2000/svg" xmlns:xlink="http://www.w3.org/1999/xlink" xmlns:svgjs="http://svgjs.com/svgjs" version="1.1" width="512" height="512" x="0" y="0" viewBox="0 0 512 512.00001" style="enable-background:new 0 0 512 512" xml:space="preserve" class=""><circle r="256" cx="256" cy="256.000005" fill="#bac8d3" shape="circle" transform="matrix(1,0,0,1,0,0)"/><g transform="matrix(0.7000000000000001,0,0,0.7000000000000001,139.79472656249996,66.79999999999998)">
<g xmlns="http://www.w3.org/2000/svg" id="surface1">
<path d="M 331.964844 275.082031 C 331.964844 266.652344 325.128906 259.816406 316.695312 259.816406 C 308.261719 259.816406 301.425781 266.652344 301.425781 275.082031 C 301.425781 349.769531 240.667969 410.527344 165.980469 410.527344 C 91.296875 410.527344 30.539062 349.769531 30.539062 275.082031 C 30.539062 266.652344 23.703125 259.816406 15.269531 259.816406 C 6.835938 259.816406 0 266.652344 0 275.082031 C 0 361.460938 66.320312 432.621094 150.714844 440.355469 L 150.714844 481.460938 L 94.046875 481.460938 C 85.613281 481.460938 78.777344 488.296875 78.777344 496.730469 C 78.777344 505.164062 85.613281 512 94.046875 512 L 237.917969 512 C 246.347656 512 253.1875 505.164062 253.1875 496.730469 C 253.1875 488.296875 246.347656 481.460938 237.917969 481.460938 L 181.25 481.460938 L 181.25 440.355469 C 265.644531 432.625 331.964844 361.460938 331.964844 275.082031 Z M 331.964844 275.082031 " style="" fill="#3b4958" data-original="#3b4958" class=""/>
<path d="M 331.964844 275.082031 C 331.964844 266.652344 325.128906 259.816406 316.695312 259.816406 C 308.261719 259.816406 301.425781 266.652344 301.425781 275.082031 C 301.425781 349.769531 240.667969 410.527344 165.980469 410.527344 C 165.875 410.527344 165.769531 410.523438 165.660156 410.523438 L 165.660156 512 L 237.917969 512 C 246.347656 512 253.1875 505.164062 253.1875 496.730469 C 253.1875 488.296875 246.347656 481.460938 237.917969 481.460938 L 181.25 481.460938 L 181.25 440.359375 C 265.644531 432.625 331.964844 361.460938 331.964844 275.082031 Z M 331.964844 275.082031 " style="" fill="#17202a" data-original="#17202a" class=""/>
<path d="M 165.980469 372.851562 C 112.074219 372.851562 68.214844 328.992188 68.214844 275.082031 L 68.214844 97.765625 C 68.214844 43.859375 112.074219 0 165.980469 0 C 219.890625 0 263.75 43.859375 263.75 97.765625 L 263.75 275.082031 C 263.75 328.992188 219.890625 372.851562 165.980469 372.851562 Z M 165.980469 372.851562 " style="" fill="#ff7045" data-original="#ff7045" class=""/>
<path d="M 165.980469 0 C 165.875 0 165.769531 0.00390625 165.660156 0.00390625 L 165.660156 372.847656 C 165.769531 372.847656 165.875 372.851562 165.980469 372.851562 C 219.890625 372.851562 263.75 328.992188 263.75 275.082031 L 263.75 97.765625 C 263.75 43.859375 219.890625 0 165.980469 0 Z M 165.980469 0 " style="" fill="#f64c1c" data-original="#f64c1c" class=""/>
</g>
</g></svg>
