<?xml version="1.0" encoding="utf-8"?>
<!-- Generator: Adobe Illustrator 16.0.0, SVG Export Plug-In . SVG Version: 6.00 Build 0)  -->
<!DOCTYPE svg PUBLIC "-//W3C//DTD SVG 1.1//EN" "http://www.w3.org/Graphics/SVG/1.1/DTD/svg11.dtd">
<svg version="1.1" id="Layer_1" xmlns="http://www.w3.org/2000/svg" xmlns:xlink="http://www.w3.org/1999/xlink" x="0px" y="0px"
	 width="144px" height="36.094px" viewBox="0 0 144 36.094" enable-background="new 0 0 144 36.094" xml:space="preserve">
<title>Layer 1</title>
<title>Layer 1</title>
<g>
	<g>
		<g>
			<path fill="#51BBEB" d="M96.778,34.777c-0.405,0-0.794-0.235-0.968-0.633c-0.232-0.533,0.011-1.154,0.545-1.389
				c5.792-2.531,9.535-8.249,9.535-14.568c-0.001-6.319-3.743-12.039-9.535-14.568c-0.533-0.233-0.777-0.855-0.544-1.389
				c0.233-0.535,0.854-0.778,1.39-0.545C103.761,4.552,108,11.029,108,18.188c0,7.157-4.238,13.635-10.801,16.5
				C97.063,34.75,96.919,34.777,96.778,34.777z"/>
			<path fill="#51BBEB" d="M96.779,26.82c-0.29,0-0.578-0.118-0.787-0.353c-0.389-0.434-0.352-1.101,0.082-1.489
				c1.932-1.728,3.038-4.203,3.038-6.791c0-2.59-1.106-5.064-3.038-6.793c-0.434-0.388-0.471-1.055-0.082-1.488
				s1.057-0.471,1.489-0.083c2.377,2.127,3.74,5.176,3.74,8.362c0,3.188-1.363,6.235-3.74,8.363
				C97.28,26.732,97.029,26.82,96.779,26.82z"/>
			<path fill="#51BBEB" d="M90.477,4.256c-0.354-0.18-0.78-0.145-1.101,0.09l-8.194,6.01h-8.127c-0.583,0-1.056,0.472-1.056,1.055
				v13.556c0,0.582,0.473,1.056,1.056,1.056h8.127l8.194,6.01c0.185,0.135,0.402,0.203,0.623,0.203c0.162,0,0.326-0.037,0.477-0.113
				c0.354-0.18,0.578-0.544,0.578-0.939V5.197C91.055,4.8,90.832,4.436,90.477,4.256z"/>
		</g>
		<g>
			<path fill="#4B7FC1" d="M105.891,18.188c0,6.319-3.743,12.037-9.535,14.568c-0.533,0.233-0.776,0.855-0.545,1.389
				c0.174,0.396,0.562,0.633,0.968,0.633c0.143,0,0.284-0.027,0.422-0.088c6.562-2.866,10.801-9.344,10.801-16.502H105.891z"/>
			<path fill="#4B7FC1" d="M96.076,24.98c-0.436,0.389-0.473,1.055-0.084,1.488c0.209,0.232,0.497,0.352,0.787,0.352
				c0.25,0,0.502-0.088,0.703-0.27c2.376-2.127,3.739-5.176,3.739-8.363h-2.108C99.112,20.775,98.005,23.252,96.076,24.98z"/>
			<path fill="#4B7FC1" d="M72,24.966c0,0.583,0.474,1.056,1.056,1.056h8.127l8.194,6.01c0.185,0.135,0.402,0.203,0.623,0.203
				c0.162,0,0.326-0.037,0.478-0.113c0.354-0.18,0.578-0.544,0.578-0.939V18.188H72V24.966L72,24.966z"/>
		</g>
	</g>
	<g>
		<g>
			<path fill="#FDD800" d="M132.778,34.59c-0.405,0-0.794-0.236-0.967-0.633c-0.233-0.535,0.01-1.156,0.544-1.389
				c5.792-2.531,9.535-8.25,9.535-14.569c-0.001-6.319-3.743-12.038-9.535-14.567c-0.533-0.233-0.777-0.855-0.544-1.39
				s0.854-0.778,1.39-0.544C139.761,4.364,144,10.841,144,17.999c0,7.157-4.238,13.636-10.801,16.501
				C133.063,34.561,132.919,34.59,132.778,34.59z"/>
			<path fill="#FDD800" d="M132.778,26.631c-0.289,0-0.577-0.117-0.786-0.352c-0.389-0.435-0.352-1.1,0.082-1.488
				c1.932-1.729,3.038-4.203,3.038-6.792c0-2.588-1.106-5.063-3.038-6.792c-0.434-0.389-0.471-1.055-0.082-1.489
				c0.389-0.434,1.057-0.471,1.489-0.083c2.377,2.127,3.74,5.176,3.74,8.363s-1.363,6.236-3.74,8.363
				C133.28,26.543,133.029,26.631,132.778,26.631z"/>
			<path fill="#FDD800" d="M126.477,4.066c-0.354-0.18-0.78-0.145-1.101,0.091l-8.194,6.009h-8.127
				c-0.583,0-1.056,0.473-1.056,1.055v13.557c0,0.582,0.473,1.056,1.056,1.056h8.127l8.194,6.01
				c0.185,0.136,0.402,0.203,0.623,0.203c0.162,0,0.326-0.037,0.477-0.112c0.354-0.181,0.578-0.545,0.578-0.941V5.008
				C127.054,4.611,126.832,4.247,126.477,4.066z"/>
		</g>
		<g>
			<path fill="#F57E20" d="M141.891,18c0,6.318-3.743,12.038-9.535,14.568c-0.533,0.232-0.776,0.855-0.544,1.39
				c0.173,0.396,0.561,0.633,0.967,0.633c0.143,0,0.284-0.028,0.422-0.088C139.761,31.636,144,25.159,144,18.001L141.891,18
				L141.891,18z"/>
			<path fill="#F57E20" d="M132.076,24.791c-0.436,0.389-0.473,1.055-0.082,1.49c0.207,0.232,0.495,0.35,0.785,0.35
				c0.25,0,0.502-0.088,0.703-0.268c2.377-2.127,3.739-5.176,3.739-8.363h-2.109C135.112,20.588,134.005,23.063,132.076,24.791z"/>
			<path fill="#F57E20" d="M108,24.777c0,0.582,0.474,1.055,1.056,1.055h8.127l8.194,6.01c0.185,0.135,0.402,0.203,0.623,0.203
				c0.162,0,0.326-0.037,0.478-0.113c0.354-0.18,0.577-0.545,0.577-0.94V18H108V24.777L108,24.777z"/>
		</g>
	</g>
	<g>
		<g>
			<path id="svg_3" fill="#6D7277" d="M26.218,18.945c0-0.418-0.339-0.756-0.756-0.756s-0.756,0.338-0.756,0.756
				c0,3.697-3.008,6.705-6.706,6.705c-3.697,0-6.706-3.008-6.706-6.705c0-0.418-0.339-0.756-0.756-0.756s-0.755,0.338-0.755,0.756
				c0,4.274,3.283,7.799,7.461,8.182v2.035h-2.806c-0.417,0-0.756,0.339-0.756,0.756c0,0.418,0.339,0.756,0.756,0.756h7.123
				c0.417,0,0.756-0.338,0.756-0.756c0-0.417-0.338-0.756-0.756-0.756h-2.806v-2.035C22.934,26.745,26.218,23.221,26.218,18.945z"/>
			<path id="svg_4" fill="#18202A" d="M26.218,18.945c0-0.418-0.339-0.756-0.756-0.756s-0.756,0.338-0.756,0.756
				c0,3.697-3.008,6.705-6.706,6.705c-0.005,0-0.01,0-0.016,0v5.022h3.577c0.417,0,0.756-0.338,0.756-0.756
				c0-0.417-0.339-0.756-0.756-0.756h-2.805v-2.035C22.934,26.745,26.218,23.221,26.218,18.945z"/>
			<path id="svg_5" fill="#51BBEB" d="M18,23.785c-2.669,0-4.84-2.171-4.84-4.84v-8.779c0-2.669,2.171-4.841,4.84-4.841
				s4.84,2.172,4.84,4.841v8.779C22.84,21.614,20.669,23.785,18,23.785z"/>
			<path id="svg_6" fill="#4B7FC1" d="M18,5.325c-0.005,0-0.01,0-0.016,0v18.459c0.005,0,0.011,0,0.016,0
				c2.669,0,4.84-2.171,4.84-4.841v-8.778C22.84,7.497,20.669,5.325,18,5.325z"/>
		</g>
		<g id="svg_35_1_" marker-end="" marker-mid="" marker-start="">
			<path fill="#51BBEB" d="M18,2.535c8.527,0,15.465,6.938,15.465,15.465S26.527,33.465,18,33.465S2.535,26.527,2.535,18
				S9.473,2.535,18,2.535 M18,0C8.055,0,0,8.055,0,18s8.055,18,18,18s18-8.057,18-18C36,8.055,27.945,0,18,0L18,0z"/>
		</g>
	</g>
	<g>
		<rect id="backgroundrect_1_" x="36" y="0.094" fill="none" width="36" height="36"/>
		<g id="svg_35" marker-end="" marker-mid="" marker-start="">
			<path fill="#BAC8D2" d="M54,2.72c8.479,0,15.375,6.897,15.375,15.375c0,8.479-6.896,15.375-15.375,15.375
				c-8.478,0-15.375-6.896-15.375-15.375C38.626,9.617,45.522,2.72,54,2.72 M54,0.2c-9.887,0-17.895,8.008-17.895,17.895
				c0,9.888,8.008,17.895,17.895,17.895c9.888,0,17.896-8.009,17.896-17.895S63.887,0.2,54,0.2L54,0.2z"/>
		</g>
		<path id="svg_4_2_" fill="#EC2227" stroke="#EC2227" d="M49.887,13.277h8.227c0.388,0,0.703,0.315,0.703,0.703v8.227
			c0,0.389-0.315,0.703-0.703,0.703h-8.227c-0.388,0-0.703-0.314-0.703-0.703V13.98C49.184,13.593,49.5,13.277,49.887,13.277z"/>
	</g>
</g>
</svg>
