<?xml version="1.0" encoding="utf-8"?>
<!-- Generator: Adobe Illustrator 16.0.0, SVG Export Plug-In . SVG Version: 6.00 Build 0)  -->
<!DOCTYPE svg PUBLIC "-//W3C//DTD SVG 1.1//EN" "http://www.w3.org/Graphics/SVG/1.1/DTD/svg11.dtd">
<svg version="1.1" id="Layer_1" xmlns="http://www.w3.org/2000/svg" xmlns:xlink="http://www.w3.org/1999/xlink" x="0px" y="0px"
	 width="113.985px" height="74.68px" viewBox="0 0 113.985 74.68" enable-background="new 0 0 113.985 74.68" xml:space="preserve">
<g>
	<rect fill="#F5F5F5" width="113.985" height="74.68"/>
	<path fill="#EB0A12" d="M113.985,5.745H0V0h113.985V5.745L113.985,5.745z"/>
	<rect y="22.979" fill="#EB0A12" width="113.985" height="5.745"/>
	<rect y="11.489" fill="#EB0A12" width="113.985" height="5.745"/>
	<path fill="#EB0A12" d="M113.985,40.212H0v-5.744h113.985V40.212z"/>
	<rect y="57.448" fill="#EB0A12" width="113.985" height="5.744"/>
	<path fill="#EB0A12" d="M113.985,74.68H0v-5.744h113.985V74.68z"/>
	<rect y="45.958" fill="#EB0A12" width="113.985" height="5.744"/>
	<g>
		<rect fill="#0161B0" width="53.062" height="40.212"/>
		<g>
			<path fill="#F5F5F5" d="M5.519,4.511l0.435,1.304l1.375,0.01c0.178,0.002,0.252,0.229,0.109,0.335L6.332,6.977l0.415,1.312
				c0.054,0.169-0.14,0.31-0.284,0.207l-1.119-0.8l-1.118,0.8C4.079,8.599,3.886,8.458,3.939,8.289l0.415-1.312L3.249,6.161
				C3.105,6.055,3.179,5.828,3.357,5.826l1.375-0.011l0.435-1.304C5.223,4.342,5.462,4.342,5.519,4.511z"/>
			<path fill="#F5F5F5" d="M5.519,11.335l0.435,1.305l1.375,0.01c0.178,0.001,0.252,0.229,0.109,0.334l-1.106,0.817l0.415,1.311
				c0.054,0.17-0.14,0.311-0.284,0.207L5.343,14.52l-1.118,0.799c-0.146,0.104-0.338-0.037-0.285-0.206l0.415-1.312l-1.106-0.816
				c-0.144-0.106-0.069-0.333,0.108-0.335l1.375-0.01l0.435-1.305C5.223,11.167,5.462,11.167,5.519,11.335z"/>
			<path fill="#F5F5F5" d="M5.519,18.16l0.435,1.305l1.375,0.01c0.178,0.001,0.252,0.229,0.109,0.334l-1.106,0.817l0.415,1.312
				c0.054,0.169-0.14,0.31-0.284,0.206l-1.119-0.799l-1.118,0.8c-0.146,0.104-0.338-0.037-0.285-0.207l0.415-1.311l-1.106-0.817
				c-0.144-0.105-0.069-0.333,0.108-0.334l1.375-0.01l0.435-1.305C5.223,17.991,5.462,17.991,5.519,18.16z"/>
			<path fill="#F5F5F5" d="M5.519,24.984l0.435,1.305L7.329,26.3c0.178,0.001,0.252,0.229,0.109,0.334l-1.106,0.817l0.415,1.311
				c0.054,0.169-0.14,0.311-0.284,0.207l-1.119-0.8l-1.118,0.8c-0.146,0.104-0.338-0.037-0.285-0.207l0.415-1.311l-1.106-0.817
				c-0.144-0.105-0.069-0.333,0.108-0.334l1.375-0.011l0.435-1.305C5.223,24.815,5.462,24.815,5.519,24.984z"/>
			<path fill="#F5F5F5" d="M5.519,31.809l0.435,1.305l1.375,0.011c0.178,0.001,0.252,0.229,0.109,0.335l-1.106,0.815l0.415,1.312
				c0.054,0.17-0.14,0.311-0.284,0.207l-1.119-0.8l-1.118,0.8c-0.146,0.104-0.338-0.037-0.285-0.207l0.415-1.311l-1.106-0.816
				c-0.144-0.106-0.069-0.333,0.108-0.335l1.375-0.01l0.435-1.305C5.223,31.64,5.462,31.64,5.519,31.809z"/>
			<path fill="#F5F5F5" d="M10.816,7.857l0.435,1.304l1.375,0.011c0.178,0.001,0.251,0.229,0.108,0.334l-1.106,0.817l0.415,1.311
				c0.054,0.169-0.139,0.31-0.285,0.207l-1.118-0.8l-1.119,0.8c-0.145,0.104-0.337-0.037-0.284-0.207l0.415-1.311L8.545,9.506
				C8.402,9.4,8.476,9.173,8.654,9.172l1.375-0.011l0.435-1.304C10.52,7.688,10.759,7.688,10.816,7.857z"/>
			<path fill="#F5F5F5" d="M10.816,14.682l0.435,1.304l1.375,0.01c0.178,0.001,0.251,0.229,0.108,0.334l-1.106,0.817l0.415,1.311
				c0.054,0.17-0.139,0.311-0.285,0.207l-1.118-0.799l-1.119,0.799c-0.145,0.104-0.337-0.036-0.284-0.207l0.415-1.311l-1.106-0.817
				c-0.143-0.106-0.069-0.333,0.108-0.334l1.375-0.01l0.435-1.304C10.52,14.513,10.759,14.513,10.816,14.682z"/>
			<path fill="#F5F5F5" d="M10.816,21.505l0.435,1.305l1.375,0.01c0.178,0.001,0.251,0.229,0.108,0.334l-1.106,0.817l0.415,1.311
				c0.054,0.17-0.139,0.311-0.285,0.207l-1.118-0.8l-1.119,0.8c-0.145,0.104-0.337-0.037-0.284-0.207l0.415-1.311l-1.106-0.817
				c-0.143-0.106-0.069-0.333,0.108-0.334l1.375-0.01l0.435-1.305C10.52,21.337,10.759,21.337,10.816,21.505z"/>
			<path fill="#F5F5F5" d="M10.816,28.33l0.435,1.305l1.375,0.011c0.178,0.001,0.251,0.229,0.108,0.334l-1.106,0.817l0.415,1.311
				c0.054,0.17-0.139,0.311-0.285,0.207l-1.118-0.801l-1.119,0.801c-0.145,0.104-0.337-0.037-0.284-0.207l0.415-1.311l-1.106-0.817
				c-0.143-0.106-0.069-0.333,0.108-0.334l1.375-0.011l0.435-1.305C10.52,28.161,10.759,28.161,10.816,28.33z"/>
			<path fill="#F5F5F5" d="M16.112,4.511l0.436,1.304l1.375,0.01c0.178,0.002,0.252,0.229,0.109,0.335l-1.106,0.816l0.415,1.312
				c0.054,0.169-0.14,0.31-0.285,0.207l-1.119-0.8l-1.118,0.8c-0.146,0.103-0.338-0.037-0.285-0.207l0.415-1.312l-1.106-0.816
				c-0.143-0.106-0.069-0.333,0.109-0.335l1.375-0.01l0.435-1.304C15.817,4.342,16.056,4.342,16.112,4.511z"/>
			<path fill="#F5F5F5" d="M16.112,11.335l0.436,1.305l1.375,0.01c0.178,0.001,0.252,0.229,0.109,0.334l-1.106,0.817l0.415,1.311
				c0.054,0.17-0.14,0.311-0.285,0.207l-1.119-0.799l-1.118,0.799c-0.146,0.104-0.338-0.037-0.285-0.207l0.415-1.311l-1.106-0.817
				c-0.143-0.106-0.069-0.333,0.109-0.334l1.375-0.01l0.435-1.305C15.817,11.167,16.056,11.167,16.112,11.335z"/>
			<path fill="#F5F5F5" d="M16.112,18.16l0.436,1.305l1.375,0.01c0.178,0.001,0.252,0.229,0.109,0.334l-1.106,0.817l0.415,1.312
				c0.054,0.169-0.14,0.31-0.285,0.206l-1.119-0.799l-1.118,0.799c-0.146,0.104-0.338-0.037-0.285-0.206l0.415-1.312l-1.106-0.817
				c-0.143-0.105-0.069-0.333,0.109-0.334l1.375-0.01l0.435-1.305C15.817,17.991,16.056,17.991,16.112,18.16z"/>
			<path fill="#F5F5F5" d="M16.112,24.984l0.436,1.305l1.375,0.011c0.178,0.001,0.252,0.229,0.109,0.334l-1.106,0.817l0.415,1.311
				c0.054,0.169-0.14,0.311-0.285,0.207l-1.119-0.8l-1.118,0.8c-0.146,0.104-0.338-0.038-0.285-0.207l0.415-1.311l-1.106-0.817
				c-0.143-0.106-0.069-0.333,0.109-0.334l1.375-0.011l0.435-1.305C15.817,24.815,16.056,24.815,16.112,24.984z"/>
			<path fill="#F5F5F5" d="M16.112,31.809l0.436,1.305l1.375,0.011c0.178,0.001,0.252,0.229,0.109,0.335l-1.106,0.815l0.415,1.312
				c0.054,0.17-0.14,0.311-0.285,0.207l-1.119-0.8l-1.118,0.8c-0.146,0.104-0.338-0.037-0.285-0.207l0.415-1.312l-1.106-0.815
				c-0.143-0.106-0.069-0.334,0.109-0.335l1.375-0.011l0.435-1.305C15.817,31.64,16.056,31.64,16.112,31.809z"/>
			<path fill="#F5F5F5" d="M21.41,7.857l0.435,1.304l1.375,0.011c0.178,0.001,0.252,0.229,0.109,0.334l-1.106,0.817l0.415,1.311
				c0.054,0.169-0.139,0.31-0.285,0.207l-1.119-0.8l-1.119,0.8c-0.145,0.104-0.338-0.037-0.284-0.207l0.415-1.311L19.14,9.506
				c-0.143-0.106-0.07-0.333,0.108-0.334l1.375-0.011l0.435-1.304C21.114,7.688,21.354,7.688,21.41,7.857z"/>
			<path fill="#F5F5F5" d="M21.41,14.682l0.435,1.304l1.375,0.01c0.178,0.001,0.252,0.229,0.109,0.334l-1.106,0.817l0.415,1.311
				c0.054,0.17-0.139,0.311-0.285,0.207l-1.119-0.799l-1.119,0.799c-0.145,0.104-0.338-0.036-0.284-0.207l0.415-1.311l-1.106-0.817
				c-0.143-0.106-0.07-0.333,0.108-0.334l1.375-0.01l0.435-1.304C21.114,14.513,21.354,14.513,21.41,14.682z"/>
			<path fill="#F5F5F5" d="M21.41,21.505l0.435,1.305l1.375,0.01c0.178,0.001,0.252,0.229,0.109,0.334l-1.106,0.817l0.415,1.311
				c0.054,0.17-0.139,0.311-0.285,0.207l-1.119-0.8l-1.119,0.8c-0.145,0.104-0.338-0.037-0.284-0.207l0.415-1.311l-1.106-0.817
				c-0.143-0.106-0.07-0.333,0.108-0.334l1.375-0.01l0.435-1.305C21.114,21.337,21.354,21.337,21.41,21.505z"/>
			<path fill="#F5F5F5" d="M21.41,28.33l0.435,1.305l1.375,0.011c0.178,0.001,0.252,0.229,0.109,0.334l-1.106,0.817l0.415,1.311
				c0.054,0.17-0.139,0.311-0.285,0.207l-1.119-0.801l-1.119,0.801c-0.145,0.104-0.338-0.037-0.284-0.207l0.415-1.311l-1.106-0.817
				c-0.143-0.106-0.07-0.333,0.108-0.334l1.375-0.011l0.435-1.305C21.114,28.161,21.354,28.161,21.41,28.33z"/>
			<path fill="#F5F5F5" d="M26.707,4.511l0.435,1.304l1.375,0.01c0.178,0.002,0.252,0.229,0.109,0.335l-1.106,0.816l0.416,1.312
				c0.054,0.169-0.14,0.31-0.285,0.207l-1.119-0.8l-1.119,0.8c-0.145,0.103-0.338-0.037-0.285-0.207l0.415-1.312l-1.106-0.816
				c-0.144-0.106-0.07-0.333,0.108-0.335l1.375-0.01l0.436-1.304C26.411,4.342,26.65,4.342,26.707,4.511z"/>
			<path fill="#F5F5F5" d="M26.707,11.335l0.435,1.305l1.375,0.01c0.178,0.001,0.252,0.229,0.109,0.334l-1.106,0.817l0.416,1.311
				c0.054,0.17-0.14,0.311-0.285,0.207l-1.119-0.799l-1.119,0.799c-0.145,0.104-0.338-0.037-0.285-0.207l0.415-1.311l-1.106-0.817
				c-0.144-0.106-0.07-0.333,0.108-0.334l1.375-0.01l0.436-1.305C26.411,11.167,26.65,11.167,26.707,11.335z"/>
			<path fill="#F5F5F5" d="M26.707,18.16l0.435,1.305l1.375,0.01c0.178,0.001,0.252,0.229,0.109,0.334l-1.106,0.817l0.416,1.312
				c0.054,0.169-0.14,0.31-0.285,0.206l-1.119-0.799l-1.119,0.799c-0.145,0.104-0.338-0.037-0.285-0.206l0.415-1.312l-1.106-0.817
				c-0.144-0.105-0.07-0.333,0.108-0.334l1.375-0.01l0.436-1.305C26.411,17.991,26.65,17.991,26.707,18.16z"/>
			<path fill="#F5F5F5" d="M26.707,24.984l0.435,1.305l1.375,0.011c0.178,0.001,0.252,0.229,0.109,0.334l-1.106,0.817l0.416,1.311
				c0.054,0.169-0.14,0.311-0.285,0.207l-1.119-0.8l-1.119,0.8c-0.145,0.104-0.338-0.038-0.285-0.207l0.415-1.311l-1.106-0.817
				c-0.144-0.106-0.07-0.333,0.108-0.334l1.375-0.011l0.436-1.305C26.411,24.815,26.65,24.815,26.707,24.984z"/>
			<path fill="#F5F5F5" d="M26.707,31.809l0.435,1.305l1.375,0.011c0.178,0.001,0.252,0.229,0.109,0.335l-1.106,0.815l0.416,1.312
				c0.054,0.17-0.14,0.311-0.285,0.207l-1.119-0.8l-1.119,0.8c-0.145,0.104-0.338-0.037-0.285-0.207l0.415-1.312l-1.106-0.815
				c-0.144-0.106-0.07-0.334,0.108-0.335l1.375-0.011l0.436-1.305C26.411,31.64,26.65,31.64,26.707,31.809z"/>
			<path fill="#F5F5F5" d="M32.004,7.857l0.435,1.304l1.375,0.011c0.178,0.001,0.251,0.229,0.108,0.334l-1.106,0.817l0.415,1.311
				c0.054,0.169-0.139,0.31-0.284,0.207l-1.119-0.8l-1.119,0.8c-0.145,0.104-0.338-0.037-0.285-0.207l0.415-1.311l-1.106-0.817
				C29.59,9.4,29.664,9.173,29.842,9.172l1.375-0.011l0.435-1.304C31.708,7.688,31.947,7.688,32.004,7.857z"/>
			<path fill="#F5F5F5" d="M32.004,14.682l0.435,1.304l1.375,0.01c0.178,0.001,0.251,0.229,0.108,0.334l-1.106,0.817l0.415,1.311
				c0.054,0.17-0.139,0.311-0.284,0.207l-1.119-0.799l-1.119,0.799c-0.145,0.104-0.338-0.036-0.285-0.207l0.415-1.311l-1.106-0.817
				c-0.143-0.106-0.069-0.333,0.109-0.334l1.375-0.01l0.435-1.304C31.708,14.513,31.947,14.513,32.004,14.682z"/>
			<path fill="#F5F5F5" d="M32.004,21.505l0.435,1.305l1.375,0.01c0.178,0.001,0.251,0.229,0.108,0.334l-1.106,0.817l0.415,1.311
				c0.054,0.17-0.139,0.311-0.284,0.207l-1.119-0.8l-1.119,0.8c-0.145,0.104-0.338-0.037-0.285-0.207l0.415-1.311l-1.106-0.817
				c-0.143-0.106-0.069-0.333,0.109-0.334l1.375-0.01l0.435-1.305C31.708,21.337,31.947,21.337,32.004,21.505z"/>
			<path fill="#F5F5F5" d="M32.004,28.33l0.435,1.305l1.375,0.011c0.178,0.001,0.251,0.229,0.108,0.334l-1.106,0.817l0.415,1.311
				c0.054,0.17-0.139,0.311-0.284,0.207l-1.119-0.801l-1.119,0.801c-0.145,0.104-0.338-0.037-0.285-0.207l0.415-1.311l-1.106-0.817
				c-0.143-0.106-0.069-0.333,0.109-0.334l1.375-0.011l0.435-1.305C31.708,28.161,31.947,28.161,32.004,28.33z"/>
			<path fill="#F5F5F5" d="M37.301,4.511l0.435,1.304l1.375,0.01c0.178,0.002,0.252,0.229,0.108,0.335l-1.106,0.816l0.415,1.312
				c0.054,0.169-0.14,0.31-0.285,0.207l-1.118-0.8l-1.119,0.8c-0.145,0.103-0.338-0.037-0.285-0.207l0.415-1.312l-1.106-0.816
				c-0.143-0.106-0.069-0.333,0.109-0.335l1.375-0.01l0.435-1.304C37.005,4.342,37.245,4.342,37.301,4.511z"/>
			<path fill="#F5F5F5" d="M37.301,11.335l0.435,1.305l1.375,0.01c0.178,0.001,0.252,0.229,0.108,0.334l-1.106,0.817l0.415,1.311
				c0.054,0.17-0.14,0.311-0.285,0.207l-1.118-0.799l-1.119,0.799c-0.145,0.104-0.338-0.037-0.285-0.207l0.415-1.311l-1.106-0.817
				c-0.143-0.106-0.069-0.333,0.109-0.334l1.375-0.01l0.435-1.305C37.005,11.167,37.245,11.167,37.301,11.335z"/>
			<path fill="#F5F5F5" d="M37.301,18.16l0.435,1.305l1.375,0.01c0.178,0.001,0.252,0.229,0.108,0.334l-1.106,0.817l0.415,1.312
				c0.054,0.169-0.14,0.31-0.285,0.206l-1.118-0.799l-1.119,0.799c-0.145,0.104-0.338-0.037-0.285-0.206l0.415-1.312l-1.106-0.817
				c-0.143-0.105-0.069-0.333,0.109-0.334l1.375-0.01l0.435-1.305C37.005,17.991,37.245,17.991,37.301,18.16z"/>
			<path fill="#F5F5F5" d="M37.301,24.984l0.435,1.305l1.375,0.011c0.178,0.001,0.252,0.229,0.108,0.334l-1.106,0.817l0.415,1.311
				c0.054,0.169-0.14,0.311-0.285,0.207l-1.118-0.8l-1.119,0.8c-0.145,0.104-0.338-0.038-0.285-0.207l0.415-1.311l-1.106-0.817
				c-0.143-0.106-0.069-0.333,0.109-0.334l1.375-0.011l0.435-1.305C37.005,24.815,37.245,24.815,37.301,24.984z"/>
			<path fill="#F5F5F5" d="M37.301,31.809l0.435,1.305l1.375,0.011c0.178,0.001,0.252,0.229,0.108,0.335l-1.106,0.815l0.415,1.312
				c0.054,0.17-0.14,0.311-0.285,0.207l-1.118-0.8l-1.119,0.8c-0.145,0.104-0.338-0.037-0.285-0.207l0.415-1.312l-1.106-0.815
				c-0.143-0.106-0.069-0.334,0.109-0.335l1.375-0.011l0.435-1.305C37.005,31.64,37.245,31.64,37.301,31.809z"/>
			<path fill="#F5F5F5" d="M42.598,7.857l0.435,1.304l1.375,0.011c0.178,0.001,0.251,0.229,0.108,0.334l-1.106,0.817l0.415,1.311
				c0.054,0.169-0.139,0.31-0.284,0.207l-1.119-0.8l-1.118,0.8c-0.146,0.104-0.338-0.037-0.285-0.207l0.415-1.311l-1.106-0.817
				c-0.143-0.106-0.07-0.333,0.108-0.334l1.375-0.011l0.435-1.304C42.302,7.688,42.542,7.688,42.598,7.857z"/>
			<path fill="#F5F5F5" d="M42.598,14.682l0.435,1.304l1.375,0.01c0.178,0.001,0.251,0.229,0.108,0.334l-1.106,0.817l0.415,1.311
				c0.054,0.17-0.139,0.311-0.284,0.207l-1.119-0.799l-1.118,0.799c-0.146,0.104-0.338-0.036-0.285-0.207l0.415-1.311l-1.106-0.817
				c-0.143-0.106-0.07-0.333,0.108-0.334l1.375-0.01l0.435-1.304C42.302,14.513,42.542,14.513,42.598,14.682z"/>
			<path fill="#F5F5F5" d="M42.598,21.505l0.435,1.305l1.375,0.01c0.178,0.001,0.251,0.229,0.108,0.334l-1.106,0.817l0.415,1.311
				c0.054,0.17-0.139,0.311-0.284,0.207l-1.119-0.8l-1.118,0.8c-0.146,0.104-0.338-0.037-0.285-0.207l0.415-1.311l-1.106-0.817
				c-0.143-0.106-0.07-0.333,0.108-0.334l1.375-0.01l0.435-1.305C42.302,21.337,42.542,21.337,42.598,21.505z"/>
			<path fill="#F5F5F5" d="M42.598,28.33l0.435,1.305l1.375,0.011c0.178,0.001,0.251,0.229,0.108,0.334l-1.106,0.817l0.415,1.311
				c0.054,0.17-0.139,0.311-0.284,0.207l-1.119-0.801l-1.118,0.801c-0.146,0.104-0.338-0.037-0.285-0.207l0.415-1.311l-1.106-0.817
				c-0.143-0.106-0.07-0.333,0.108-0.334l1.375-0.011l0.435-1.305C42.302,28.161,42.542,28.161,42.598,28.33z"/>
			<path fill="#F5F5F5" d="M47.895,4.511l0.435,1.304l1.375,0.01c0.177,0.002,0.251,0.229,0.108,0.335l-1.106,0.816l0.415,1.312
				c0.054,0.169-0.14,0.31-0.285,0.207l-1.119-0.8l-1.119,0.8c-0.145,0.103-0.338-0.037-0.284-0.207l0.415-1.312l-1.106-0.816
				c-0.143-0.106-0.069-0.333,0.109-0.335l1.375-0.01l0.435-1.304C47.6,4.342,47.838,4.342,47.895,4.511z"/>
			<path fill="#F5F5F5" d="M47.895,11.335l0.435,1.305l1.375,0.01c0.177,0.001,0.251,0.229,0.108,0.334l-1.106,0.817l0.415,1.311
				c0.054,0.17-0.14,0.311-0.285,0.207l-1.119-0.799l-1.119,0.799c-0.145,0.104-0.338-0.037-0.284-0.207l0.415-1.311l-1.106-0.817
				c-0.143-0.106-0.069-0.333,0.109-0.334l1.375-0.01l0.435-1.305C47.6,11.167,47.838,11.167,47.895,11.335z"/>
			<path fill="#F5F5F5" d="M47.895,18.16l0.435,1.305l1.375,0.01c0.177,0.001,0.251,0.229,0.108,0.334l-1.106,0.817l0.415,1.312
				c0.054,0.169-0.14,0.31-0.285,0.206l-1.119-0.799l-1.119,0.799c-0.145,0.104-0.338-0.037-0.284-0.206l0.415-1.312l-1.106-0.817
				c-0.143-0.105-0.069-0.333,0.109-0.334l1.375-0.01l0.435-1.305C47.6,17.991,47.838,17.991,47.895,18.16z"/>
			<path fill="#F5F5F5" d="M47.895,24.984l0.435,1.305l1.375,0.011c0.177,0.001,0.251,0.229,0.108,0.334l-1.106,0.817l0.415,1.311
				c0.054,0.169-0.14,0.311-0.285,0.207l-1.119-0.8l-1.119,0.8c-0.145,0.104-0.338-0.038-0.284-0.207l0.415-1.311l-1.106-0.817
				c-0.143-0.106-0.069-0.333,0.109-0.334l1.375-0.011l0.435-1.305C47.6,24.815,47.838,24.815,47.895,24.984z"/>
			<path fill="#F5F5F5" d="M47.895,31.809l0.435,1.305l1.375,0.011c0.177,0.001,0.251,0.229,0.108,0.335l-1.106,0.815l0.415,1.312
				c0.054,0.17-0.14,0.311-0.285,0.207l-1.119-0.8l-1.119,0.8c-0.145,0.104-0.338-0.037-0.284-0.207l0.415-1.312l-1.106-0.815
				c-0.143-0.106-0.069-0.334,0.109-0.335l1.375-0.011l0.435-1.305C47.6,31.64,47.838,31.64,47.895,31.809z"/>
		</g>
	</g>
</g>
</svg>
